<?xml version="1.0" encoding="UTF-8"?>
<svg xmlns="http://www.w3.org/2000/svg" xmlns:xlink="http://www.w3.org/1999/xlink" width="600px" height="400px" viewBox="0 0 600 400" version="1.1">
<g id="surface1">
<rect x="0" y="0" width="600" height="400" style="fill:rgb(93.72549%,94.509804%,95.294118%);fill-opacity:1;stroke:none;"/>
<path style=" stroke:none;fill-rule:evenodd;fill:rgb(40.784314%,46.666667%,52.941176%);fill-opacity:1;" d="M 166.25 128.273438 C 166.300781 123.492188 172.097656 119.621094 179.273438 119.582031 L 415.730469 119.582031 C 422.925781 119.582031 428.75 123.476562 428.75 128.273438 L 428.75 268.394531 C 428.703125 273.175781 422.902344 277.046875 415.730469 277.082031 L 179.273438 277.082031 C 172.078125 277.078125 166.25 273.191406 166.25 268.394531 Z M 402.503906 137.082031 L 192.503906 137.082031 L 192.503906 259.582031 L 314.460938 178.261719 C 319.585938 174.84375 327.894531 174.84375 333.019531 178.261719 L 402.503906 224.671875 Z M 218.75 172.082031 C 218.75 181.746094 230.503906 189.582031 245 189.582031 C 259.496094 189.582031 271.25 181.746094 271.25 172.082031 C 271.25 162.417969 259.496094 154.582031 245 154.582031 C 230.503906 154.582031 218.75 162.417969 218.75 172.082031 Z M 218.75 172.082031 "/>
</g>
</svg>
